<mxfile host="65bd71144e">
    <diagram id="R2lEEEUBdFMjLlhIrx00" name="Page-1">
        <mxGraphModel dx="1196" dy="783" grid="1" gridSize="10" guides="1" tooltips="1" connect="1" arrows="1" fold="1" page="1" pageScale="1" pageWidth="850" pageHeight="1100" math="0" shadow="0" extFonts="Permanent Marker^https://fonts.googleapis.com/css?family=Permanent+Marker">
            <root>
                <mxCell id="0"/>
                <mxCell id="1" parent="0"/>
                <mxCell id="ZTjVSnsNBAfnbezk5d7I-7" style="edgeStyle=orthogonalEdgeStyle;rounded=0;orthogonalLoop=1;jettySize=auto;html=1;endArrow=none;endFill=0;entryX=0;entryY=0.5;entryDx=0;entryDy=0;" parent="1" source="ZTjVSnsNBAfnbezk5d7I-1" target="ZTjVSnsNBAfnbezk5d7I-2" edge="1">
                    <mxGeometry relative="1" as="geometry">
                        <mxPoint x="430" y="100" as="targetPoint"/>
                        <Array as="points">
                            <mxPoint x="410" y="100"/>
                            <mxPoint x="410" y="100"/>
                        </Array>
                    </mxGeometry>
                </mxCell>
                <mxCell id="ZTjVSnsNBAfnbezk5d7I-1" value="ELoHiM&amp;nbsp;&lt;br&gt;TZVAOT" style="whiteSpace=wrap;html=1;align=center;rounded=1;" parent="1" vertex="1">
                    <mxGeometry x="130" y="80" width="99" height="40" as="geometry"/>
                </mxCell>
                <mxCell id="ZTjVSnsNBAfnbezk5d7I-2" value="YHVH&amp;nbsp;&lt;br&gt;TZVAOT" style="whiteSpace=wrap;html=1;align=center;" parent="1" vertex="1">
                    <mxGeometry x="670" y="80" width="100" height="40" as="geometry"/>
                </mxCell>
                <mxCell id="ZTjVSnsNBAfnbezk5d7I-3" value="YHVH ELoHIM TZVAOT, hear my prayer (Ps. 94:9)" style="text;html=1;align=center;verticalAlign=middle;resizable=0;points=[];autosize=1;strokeColor=none;fillColor=none;" parent="1" vertex="1">
                    <mxGeometry x="270" y="20" width="290" height="20" as="geometry"/>
                </mxCell>
                <mxCell id="ZTjVSnsNBAfnbezk5d7I-4" value="return to us, shine your counteance&lt;br&gt;and we will be saved (Ps. 90:8)" style="text;html=1;align=center;verticalAlign=middle;resizable=0;points=[];autosize=1;strokeColor=none;fillColor=none;" parent="1" vertex="1">
                    <mxGeometry x="140" y="130" width="200" height="30" as="geometry"/>
                </mxCell>
                <mxCell id="ZTjVSnsNBAfnbezk5d7I-5" value="is with us, the G-d of Jacob&lt;br&gt;is our haven (Ps. 46:12)" style="text;html=1;align=center;verticalAlign=middle;resizable=0;points=[];autosize=1;strokeColor=none;fillColor=none;" parent="1" vertex="1">
                    <mxGeometry x="620" y="130" width="160" height="30" as="geometry"/>
                </mxCell>
                <mxCell id="ZTjVSnsNBAfnbezk5d7I-6" value="These two names are defined in the light of the Other.&amp;nbsp;" style="text;html=1;align=center;verticalAlign=middle;resizable=0;points=[];autosize=1;strokeColor=none;fillColor=none;" parent="1" vertex="1">
                    <mxGeometry x="270" y="80" width="300" height="20" as="geometry"/>
                </mxCell>
                <mxCell id="ZTjVSnsNBAfnbezk5d7I-8" value="" style="endArrow=none;html=1;rounded=0;startArrow=none;exitX=0.443;exitY=-0.017;exitDx=0;exitDy=0;exitPerimeter=0;" parent="1" edge="1">
                    <mxGeometry width="50" height="50" relative="1" as="geometry">
                        <mxPoint x="452.02" y="148.98000000000002" as="sourcePoint"/>
                        <mxPoint x="451" y="102" as="targetPoint"/>
                    </mxGeometry>
                </mxCell>
                <mxCell id="ZTjVSnsNBAfnbezk5d7I-9" value="Empty the outpourings &lt;br&gt;from the channels &lt;br&gt;and &lt;br&gt;the upper Spheres" style="text;html=1;align=center;verticalAlign=middle;resizable=0;points=[];autosize=1;strokeColor=none;fillColor=none;" parent="1" vertex="1">
                    <mxGeometry x="390" y="150" width="140" height="60" as="geometry"/>
                </mxCell>
                <mxCell id="ZTjVSnsNBAfnbezk5d7I-13" value="" style="edgeStyle=none;rounded=0;orthogonalLoop=1;jettySize=auto;html=1;endArrow=none;endFill=0;" parent="1" source="ZTjVSnsNBAfnbezk5d7I-12" target="ZTjVSnsNBAfnbezk5d7I-9" edge="1">
                    <mxGeometry relative="1" as="geometry"/>
                </mxCell>
                <mxCell id="ZTjVSnsNBAfnbezk5d7I-12" value="&lt;span&gt;EL CHaY&lt;/span&gt;" style="ellipse;whiteSpace=wrap;html=1;align=center;rounded=1;" parent="1" vertex="1">
                    <mxGeometry x="240" y="230" width="100" height="40" as="geometry"/>
                </mxCell>
                <mxCell id="ZTjVSnsNBAfnbezk5d7I-14" value="Judgement (DIN)" style="shape=associativeEntity;whiteSpace=wrap;html=1;align=center;rounded=1;" parent="1" vertex="1">
                    <mxGeometry x="385" y="250" width="140" height="60" as="geometry"/>
                </mxCell>
            </root>
        </mxGraphModel>
    </diagram>
</mxfile>